<svg width="100" height="64" viewBox="0 0 100 64" fill="none" xmlns="http://www.w3.org/2000/svg">
<rect x="0.5" y="0.5" width="99" height="63" rx="3.5" fill="white" stroke="#C8C8C8"/>
<path d="M27.5826 30.3116V29.1552L27.0275 30.3116H22.2258L21.6245 29.0626V30.3116H12.6411L11.5771 27.8044H9.78231L8.66285 30.3116H4V22.7252L7.41388 15.0001H13.9456L14.8615 17.1927V15.0186H22.855L24.6128 18.7007L26.3336 15.0001H51.5722C51.5722 15.0001 52.8952 14.9816 53.7649 15.5922V15.0001H60.1208V15.8327C60.1208 15.8327 61.2587 15.0001 62.9518 15.0001C64.6449 15.0001 74.1649 15.0001 74.1649 15.0001L75.1548 17.2205V15.0001H82.3434L83.6478 17.2205V15.0001H90.5219V30.3209H83.4628L81.8068 27.6471V30.3024H73.0362L71.8057 27.5639H70.0849L68.9284 30.3024H63.6179C63.6179 30.3024 61.6381 30.2746 60.1485 29.2107C60.1485 29.7658 60.1485 30.3024 60.1485 30.3024H49.5553C49.5553 30.3024 49.5553 27.2493 49.5553 26.7312C49.5553 26.2131 49.1575 26.2501 49.1575 26.2501H48.769V30.3024H27.5826V30.3116Z" fill="white"/>
<path d="M22.3091 33.6329H36.2051L38.2127 35.8996L40.2666 33.6329H50.9523C50.9523 33.6329 51.9515 33.6607 52.9044 34.1695V33.6329C52.9044 33.6329 61.2125 33.6329 62.4152 33.6329C63.6179 33.6329 64.6356 34.2343 64.6356 34.2343V33.6329H76.8663V34.188C76.8663 34.188 77.736 33.6329 78.9109 33.6329C80.0767 33.6329 86.8767 33.6329 86.8767 33.6329V34.188C86.8767 34.188 87.8758 33.6329 88.9398 33.6329C90.0037 33.6329 95.1939 33.6329 95.1939 33.6329V48.0656C95.1939 48.0656 94.3705 49 92.6682 49H84.425V48.5374C84.425 48.5374 83.6386 49 82.4451 49C81.2516 49 60.5463 49 60.5463 49C60.5463 49 60.5463 45.6416 60.5463 45.2716C60.5463 44.9015 60.3891 44.8367 60.056 44.8367H59.7507V49H52.9044V44.8645C52.9044 44.8645 52.1458 45.2716 50.8783 45.2716C49.6108 45.2716 48.4174 45.2716 48.4174 45.2716V49H39.9613L38.037 46.6593L35.9831 49H22.3091V33.6329Z" fill="white"/>
<path d="M66.0881 35.9366H74.8032V38.2681H68.7619V40.3127H74.6367V42.3666H68.7619V44.513H74.8032V46.7981H66.0881V35.9366Z" fill="#0078AC"/>
<path d="M91.6506 40.1647C94.9257 40.3313 95.2032 41.9688 95.2032 43.7174C95.2032 45.7527 93.5287 46.8444 91.7893 46.8444H86.1921V44.513H90.5589C91.299 44.513 92.4 44.513 92.4 43.4676C92.4 42.968 92.2057 42.6534 91.4193 42.5702C91.0677 42.5239 89.7725 42.4499 89.5782 42.4406C86.6176 42.3666 85.9238 40.8864 85.9238 39.1008C85.9238 37.0654 87.3578 35.9552 89.1063 35.9552H94.7036V38.2866H90.6051C89.6707 38.2959 88.6715 38.1756 88.6715 39.2303C88.6715 39.8964 89.1711 40.0352 89.8002 40.0907C90.0038 40.0907 91.4563 40.1647 91.6506 40.1647Z" fill="#0078AC"/>
<path d="M81.6125 40.1647C84.8876 40.3313 85.1651 41.9688 85.1651 43.7174C85.1651 45.7527 83.4906 46.8444 81.742 46.8444H76.1447V44.513H80.5115C81.2517 44.513 82.3526 44.513 82.3526 43.4676C82.3526 42.968 82.1583 42.6534 81.3719 42.5702C81.0204 42.5239 79.7251 42.4499 79.5309 42.4406C76.5703 42.3666 75.8857 40.8864 75.8857 39.1008C75.8857 37.0654 77.3197 35.9552 79.059 35.9552H84.6563V38.2866H80.5578C79.6234 38.2959 78.6149 38.1756 78.6149 39.2303C78.6149 39.8964 79.1145 40.0352 79.7436 40.0907C79.9657 40.0907 81.4182 40.1647 81.6125 40.1647Z" fill="#0078AC"/>
<path d="M49.9902 35.9552H40.6274L37.5744 39.3229L34.6138 35.9275H24.1132V46.789H34.2808L37.4819 43.1993L40.6089 46.8167H45.7251V43.1253H49.3148C50.6933 43.1253 53.219 43.0791 53.219 39.2674C53.219 36.5659 51.3039 35.9552 49.9902 35.9552ZM32.8838 44.5131H26.7406V42.3667H32.6247V40.3035H26.7406V38.2682L33.2261 38.2867L35.8258 41.2472L32.8838 44.5131ZM43.0791 45.7805L39.2489 41.2472L43.0791 37.0007V45.7805ZM49.0927 40.8957H45.7714V38.2867H49.102C50.2214 38.2867 50.573 38.9991 50.573 39.5357C50.573 40.2665 50.1844 40.8957 49.0927 40.8957Z" fill="#0078AC"/>
<path d="M62.8685 41.8762C64.321 41.1453 64.7096 40.1831 64.7096 38.8694C64.7096 36.5472 62.8222 35.9644 61.5085 35.9644H54.579V46.8258H57.2435V42.9956H60.7314C61.6565 42.9956 62.0173 43.9208 62.0359 44.8367L62.1099 46.8258H64.7003L64.6078 44.5962C64.6171 42.8384 64.136 42.015 62.8685 41.8762ZM60.5741 40.7475H57.2527V38.2865H60.5833C61.7028 38.2865 62.0544 38.9989 62.0544 39.5355C62.0451 40.2664 61.6565 40.7475 60.5741 40.7475Z" fill="#0078AC"/>
<path d="M58.3166 17.1835H55.6522V28.0542H58.3166V17.1835Z" fill="#0078AC"/>
<path d="M33.8182 17.1929H42.5333V19.5335H36.492V21.5689H42.3668V23.632H36.492V25.7784H42.5333V28.0544H33.8182V17.1929Z" fill="#0078AC"/>
<path d="M52.414 23.1139C53.8665 22.3922 54.2551 21.4208 54.2551 20.1071C54.2551 17.7756 52.3678 17.202 51.054 17.202H44.1245V28.0635H46.789V24.2333H50.2769C51.2021 24.2333 51.5629 25.1492 51.5906 26.0744L51.6646 28.0635H54.2551L54.1626 25.8339C54.1534 24.076 53.6723 23.2526 52.414 23.1139ZM50.1104 21.9852H46.789V19.5242H50.1196C51.2391 19.5242 51.5814 20.2366 51.5814 20.7732C51.5814 21.5041 51.2021 21.9852 50.1104 21.9852Z" fill="#0078AC"/>
<path d="M27.6658 17.1929L24.3907 24.4832L21.1249 17.1929H16.9431V27.6565L12.2988 17.1929H8.77387L4.01849 28.0544H6.83101L7.8672 25.6304H13.1869L14.2416 28.0544H19.6076V19.9961L23.1695 28.0544H25.5934L29.2386 20.1257V28.0544H31.9031V17.1929H27.6658ZM8.87563 23.2897L10.4669 19.4965L12.123 23.2897H8.87563Z" fill="#0078AC"/>
<path d="M85.8405 17.1929V24.7145L81.3442 17.1929H77.403V27.3975L72.8604 17.2021H69.3355L65.6626 25.6119C65.6626 25.6119 64.1083 25.6119 63.951 25.5749C63.3034 25.4454 62.3042 24.992 62.2949 23.0769V22.2906C62.2949 19.7463 63.6827 19.5613 65.4498 19.5613H67.0966V17.2021H63.6179C62.406 17.2021 59.7692 18.1273 59.6767 22.5866C59.612 25.5934 60.9257 28.0729 63.877 28.0729H67.3926L68.4381 25.6489H73.7578L74.8125 28.0729H80.0767V20.1164L84.8783 28.0729H88.5142V17.1929H85.8405ZM69.4558 23.299L71.0471 19.5058L72.7216 23.299H69.4558Z" fill="#0078AC"/>
</svg>
