<svg id="レイヤー_1" data-name="レイヤー 1" xmlns="http://www.w3.org/2000/svg" xmlns:xlink="http://www.w3.org/1999/xlink" viewBox="0 0 32 32"><defs><style>.cls-1{fill:url(#名称未設定グラデーション_28);}.cls-2{fill:#fff;}.cls-3{fill:url(#名称未設定グラデーション_53);}.cls-4{fill:url(#名称未設定グラデーション_53-2);}.cls-5{fill:url(#名称未設定グラデーション_79);}</style><linearGradient id="名称未設定グラデーション_28" x1="7.98" y1="29.88" x2="24.02" y2="2.12" gradientUnits="userSpaceOnUse"><stop offset="0.18" stop-color="#e0e0e0"/><stop offset="0.89" stop-color="#c4c4c4"/></linearGradient><linearGradient id="名称未設定グラデーション_53" x1="21.96" y1="18.17" x2="27.52" y2="18.17" gradientUnits="userSpaceOnUse"><stop offset="0.18" stop-color="#b3b3b3"/><stop offset="0.89" stop-color="#999"/></linearGradient><linearGradient id="名称未設定グラデーション_53-2" x1="0" y1="10.5" x2="32" y2="10.5" xlink:href="#名称未設定グラデーション_53"/><linearGradient id="名称未設定グラデーション_79" x1="21.1" y1="13.75" x2="28.5" y2="0.94" gradientUnits="userSpaceOnUse"><stop offset="0.18" stop-color="#414185"/><stop offset="0.89" stop-color="#000054"/></linearGradient></defs><rect class="cls-1" y="6" width="32" height="20" rx="1.72"/><rect class="cls-2" x="3" y="16" width="26" height="4" rx="0.77"/><rect class="cls-3" x="21.96" y="17.17" width="5.56" height="2" rx="0.25"/><rect class="cls-4" y="9" width="32" height="3"/><path class="cls-5" d="M32,7a7,7,0,1,0-8.16,6.9L25,16l1.16-2.1A7,7,0,0,0,32,7Z"/><path class="cls-2" d="M20,10.18V5.3a3.62,3.62,0,0,1-1.2.47v-.7a3.58,3.58,0,0,0,1.45-.84h.65v5.95Z"/><path class="cls-2" d="M22.19,10.18v-.06c0-.89.55-1.76,1.78-2.69.93-.7,1.19-.93,1.19-1.56a.9.9,0,0,0-1-1c-.69,0-1,.37-1.12,1.06H22.2a1.84,1.84,0,0,1,2-1.78,1.66,1.66,0,0,1,1.88,1.7c0,.89-.37,1.26-1.47,2.09a3.55,3.55,0,0,0-1.35,1.47H26.3l-.13.77Z"/><path class="cls-2" d="M27.11,5.69A1.74,1.74,0,0,1,29,4.15c1.26,0,1.83.75,1.83,1.55a1.24,1.24,0,0,1-.78,1.22v0a1.46,1.46,0,0,1,1,1.48A1.84,1.84,0,0,1,29,10.29,1.87,1.87,0,0,1,27,8.63h.88A1.15,1.15,0,0,0,29,9.57a1.06,1.06,0,0,0,1.15-1.15c0-.74-.45-1.09-1.23-1.09h-.44V6.61h.38c.74,0,1.06-.28,1.06-.88s-.34-.86-1-.86a.94.94,0,0,0-1,.82Z"/></svg>