<svg width="100" height="64" viewBox="0 0 100 64" fill="none" xmlns="http://www.w3.org/2000/svg">
<rect x="0.5" y="0.5" width="99" height="63" rx="3.5" fill="white" stroke="#C8C8C8"/>
<path d="M53.1384 37.9598C61.8694 37.9971 69.8368 30.7702 69.8368 21.976C69.8368 12.3608 61.8694 5.70605 53.1384 5.70605H45.6266C36.7971 5.70605 29.5193 12.3484 29.5193 21.976C29.5193 30.7702 36.7848 38.0096 45.6266 37.9598H53.1384Z" fill="#0065AC"/>
<path d="M49.04 30.6894V12.9766C52.5977 14.3391 55.1335 17.7959 55.1335 21.833C55.1209 25.8827 52.5977 29.3268 49.04 30.6894ZM36.1466 21.833C36.1592 17.7959 38.6824 14.3391 42.2401 12.9766V30.6894C38.6824 29.3142 36.1592 25.8827 36.1466 21.833ZM45.6464 6.85791C37.3829 6.85791 30.6713 13.557 30.6713 21.833C30.6713 30.0964 37.3703 36.7955 45.6464 36.8081C53.9224 36.8081 60.6214 30.109 60.6214 21.833C60.6088 13.5696 53.9098 6.85791 45.6464 6.85791Z" fill="white"/>
<path d="M20.6119 50.0107C20.6119 51.0516 21.3581 51.1694 22.016 51.1694C24.9225 51.1694 25.875 48.9797 25.875 46.9668C25.875 44.4531 24.2548 42.6365 21.6625 42.6365C21.1127 42.6365 20.8574 42.6758 20.6119 42.6954V50.0107ZM19.2961 43.697C19.2961 42.4892 18.6677 42.5678 18.0589 42.558V42.2045C18.5793 42.2339 19.1194 42.2339 19.6496 42.2339C20.2093 42.2339 20.985 42.2045 21.9768 42.2045C25.4626 42.2045 27.3577 44.5316 27.3577 46.9177C27.3577 48.2531 26.5721 51.6015 21.8098 51.6015C21.1225 51.6015 20.4941 51.572 19.8558 51.572C19.247 51.572 18.6579 51.5818 18.0491 51.6015V51.248C18.8542 51.1694 19.247 51.14 19.2863 50.2268V43.697H19.2961Z" fill="#231815"/>
<path d="M29.2726 43.3731C28.9192 43.3731 28.6148 43.049 28.6148 42.6956C28.6148 42.3617 28.9388 42.0475 29.2726 42.0475C29.6163 42.0475 29.9305 42.3322 29.9305 42.6956C29.9305 43.0589 29.636 43.3731 29.2726 43.3731ZM27.8292 51.2481H28.0845C28.4577 51.2481 28.7326 51.2481 28.7326 50.8062V47.1535C28.7326 46.5643 28.5362 46.476 28.0354 46.2108V45.9948C28.6639 45.8082 29.4199 45.5529 29.4789 45.5137C29.577 45.4548 29.6556 45.4449 29.7243 45.4449C29.7931 45.4449 29.8225 45.5235 29.8225 45.6315V50.7964C29.8225 51.2383 30.1171 51.2383 30.5 51.2383H30.7259V51.5918C30.2644 51.5918 29.7931 51.5623 29.3119 51.5623C28.8308 51.5623 28.3398 51.5721 27.8489 51.5918V51.2481H27.8292Z" fill="#231815"/>
<path d="M31.9925 47.232C31.9925 46.7313 31.8452 46.6036 31.2167 46.3483V46.093C31.7961 45.9064 32.3459 45.7297 32.994 45.4449C33.0333 45.4449 33.0726 45.4744 33.0726 45.5824V46.4563C33.8385 45.9065 34.4964 45.4449 35.3997 45.4449C36.5387 45.4449 36.9512 46.2796 36.9512 47.3302V50.8062C36.9512 51.2481 37.2457 51.2481 37.6287 51.2481H37.8742V51.6016C37.4028 51.6016 36.9315 51.5721 36.4504 51.5721C35.9692 51.5721 35.4783 51.582 34.9971 51.6016V51.2481H35.2426C35.6157 51.2481 35.8907 51.2481 35.8907 50.8062V47.3204C35.8907 46.5545 35.4194 46.1716 34.6535 46.1716C34.2214 46.1716 33.5341 46.5251 33.0922 46.8196V50.8062C33.0922 51.2481 33.3868 51.2481 33.7697 51.2481H34.0152V51.6016C33.5439 51.6016 33.0726 51.5721 32.5914 51.5721C32.1103 51.5721 31.6193 51.582 31.1382 51.6016V51.2481H31.3837C31.7568 51.2481 32.0317 51.2481 32.0317 50.8062V47.232H31.9925Z" fill="#231815"/>
<path d="M41.2619 47.448C41.5958 47.448 41.635 47.2713 41.635 47.1141C41.635 46.4268 41.2226 45.8769 40.4665 45.8769C39.6417 45.8769 39.082 46.4857 38.9151 47.448H41.2619ZM38.8758 47.88C38.8464 47.9979 38.8464 48.2041 38.8758 48.6558C38.9544 49.9323 39.7792 50.9829 40.8593 50.9829C41.5958 50.9829 42.1751 50.5803 42.6759 50.0795L42.8624 50.2661C42.2438 51.0909 41.4779 51.7881 40.3782 51.7881C38.2376 51.7881 37.8055 49.7162 37.8055 48.8521C37.8055 46.2108 39.5828 45.4351 40.5255 45.4351C41.6154 45.4351 42.7839 46.1224 42.8035 47.5462C42.8035 47.6247 42.8035 47.7033 42.7937 47.7917L42.6759 47.8702H38.8758V47.88Z" fill="#231815"/>
<path d="M43.1078 51.2481H43.4711C43.8442 51.2481 44.1192 51.2481 44.1192 50.8062V47.0258C44.1192 46.6134 43.6184 46.5251 43.422 46.417V46.2108C44.4039 45.7886 44.944 45.4449 45.0618 45.4449C45.1404 45.4449 45.1796 45.4842 45.1796 45.6217V46.8295H45.2091C45.543 46.309 46.1125 45.4449 46.9275 45.4449C47.2613 45.4449 47.6934 45.6708 47.6934 46.1617C47.6934 46.5251 47.4381 46.8491 47.0551 46.8491C46.6427 46.8491 46.6427 46.5251 46.1714 46.5251C45.9455 46.5251 45.1895 46.8393 45.1895 47.6445V50.8062C45.1895 51.2481 45.4546 51.2481 45.8375 51.2481H46.5936V51.6016C45.8572 51.5918 45.2877 51.5721 44.7083 51.5721C44.1584 51.5721 43.5889 51.582 43.1078 51.6016V51.2481Z" fill="#231815"/>
<path d="M48.2922 49.7262C48.469 50.6099 49.009 51.366 49.991 51.366C50.7863 51.366 51.0809 50.8849 51.0809 50.4135C51.0809 48.8228 48.1449 49.3334 48.1449 47.1732C48.1449 46.4171 48.7537 45.4548 50.2266 45.4548C50.6587 45.4548 51.238 45.5727 51.7584 45.8476L51.8566 47.2223H51.5424C51.4049 46.3778 50.9336 45.8967 50.0793 45.8967C49.5393 45.8967 49.0287 46.2011 49.0287 46.7804C49.0287 48.3515 52.1512 47.8704 52.1512 49.9815C52.1512 50.875 51.4344 51.8079 49.8338 51.8079C49.2938 51.8079 48.6654 51.6213 48.194 51.3562L48.0468 49.8047L48.2922 49.7262Z" fill="#231815"/>
<path d="M64.3073 44.6397H63.9735C63.7182 43.0687 62.5988 42.4304 61.0965 42.4304C59.545 42.4304 57.2964 43.4614 57.2964 46.7018C57.2964 49.4217 59.2308 51.3757 61.3027 51.3757C62.6381 51.3757 63.7378 50.4625 64.0128 49.0486L64.3172 49.1271L64.0128 51.0909C63.4433 51.4444 61.9213 51.8077 61.0375 51.8077C57.8856 51.8077 55.9021 49.7752 55.9021 46.7509C55.9021 43.9917 58.3667 42.0082 60.9983 42.0082C62.0882 42.0082 63.1389 42.3617 64.1797 42.725L64.3073 44.6397Z" fill="#231815"/>
<path d="M64.7886 51.2481H65.0439C65.4268 51.2481 65.6919 51.2481 65.6919 50.8063V43.3142C65.6919 42.4403 65.4857 42.4109 64.9751 42.2636V42.0475C65.5152 41.8708 66.0749 41.6351 66.3597 41.4682C66.5069 41.3897 66.6149 41.3209 66.6542 41.3209C66.7328 41.3209 66.7622 41.3995 66.7622 41.5075V50.8063C66.7622 51.2481 67.0568 51.2481 67.4398 51.2481H67.6656V51.6016C67.2139 51.6016 66.7426 51.5722 66.2516 51.5722C65.7705 51.5722 65.2795 51.582 64.7886 51.6016V51.2481Z" fill="#231815"/>
<path d="M73.4295 50.8552C73.4295 51.1007 73.5768 51.1105 73.8027 51.1105C73.9598 51.1105 74.166 51.1007 74.3427 51.1007V51.3855C73.7634 51.4346 72.6636 51.7193 72.4083 51.7979L72.3396 51.7586V50.6687C71.5344 51.3266 70.9158 51.7979 69.9535 51.7979C69.2269 51.7979 68.4708 51.3266 68.4708 50.1973V46.7508C68.4708 46.3973 68.4217 46.0635 67.6656 45.9947V45.7394C68.1468 45.7296 69.2269 45.6412 69.4037 45.6412C69.5509 45.6412 69.5509 45.7394 69.5509 46.034V49.51C69.5509 49.9126 69.5509 51.0713 70.7194 51.0713C71.1809 51.0713 71.7799 50.7178 72.3494 50.2563V46.633C72.3494 46.3679 71.7013 46.2206 71.2202 46.0831V45.8376C72.428 45.7591 73.184 45.6511 73.3215 45.6511C73.4295 45.6511 73.4295 45.7492 73.4295 45.8965V50.8552Z" fill="#231815"/>
<path d="M76.1101 50.0699C76.1101 50.5805 76.5913 51.4446 77.4947 51.4446C78.9381 51.4446 79.5371 50.0306 79.5371 48.8327C79.5371 47.3794 78.4373 46.1717 77.3866 46.1717C76.8859 46.1717 76.4735 46.4957 76.1101 46.8099V50.0699ZM76.1101 46.4171C76.6502 45.9556 77.3768 45.445 78.1133 45.445C79.6745 45.445 80.6172 46.8099 80.6172 48.273C80.6172 50.0404 79.321 51.7981 77.3965 51.7981C76.4047 51.7981 75.8745 51.474 75.5308 51.3268L75.1282 51.6311L74.8435 51.4839C74.9613 50.6885 75.03 49.9128 75.03 49.088V43.3045C75.03 42.4305 74.8238 42.4011 74.3132 42.2538V42.0378C74.8533 41.861 75.413 41.6254 75.6977 41.4584C75.845 41.3799 75.953 41.3112 75.9923 41.3112C76.0709 41.3112 76.1003 41.3897 76.1003 41.4977V46.4171H76.1101Z" fill="#231815"/>
<path d="M18.0394 59.4176H18.1474C18.4126 59.4176 18.6875 59.3783 18.6875 58.9954V55.1561C18.6875 54.7731 18.4126 54.7338 18.1474 54.7338H18.0394V54.5178C18.3242 54.5178 18.7661 54.5473 19.1294 54.5473C19.4927 54.5473 19.9345 54.5178 20.2782 54.5178V54.7338H20.18C19.9149 54.7338 19.64 54.7731 19.64 55.1561V58.9954C19.64 59.3783 19.9247 59.4176 20.18 59.4176H20.2782V59.6336C19.9247 59.6336 19.4829 59.6042 19.1195 59.6042C18.7661 59.6042 18.3242 59.6336 18.0394 59.6336V59.4176Z" fill="#231815"/>
<path d="M20.2486 59.6142V59.4571H20.1799C19.9147 59.4571 19.6103 59.4178 19.6103 59.0054V55.1661C19.6103 54.7635 19.9246 54.7144 20.1799 54.7144H20.2486V54.5573C19.9147 54.5573 19.4827 54.5867 19.1292 54.5867C18.7855 54.5867 18.3633 54.5573 18.0786 54.5573V54.7144H18.1473C18.4124 54.7144 18.7168 54.7635 18.7168 55.1661V59.0054C18.7168 59.408 18.4026 59.4571 18.1473 59.4571H18.0786V59.6142C18.3633 59.6142 18.7757 59.5847 19.1194 59.5847C19.4729 59.5847 19.8951 59.6043 20.2486 59.6142ZM20.2781 59.6731C19.9246 59.6731 19.4827 59.6436 19.1194 59.6436C18.7659 59.6436 18.3339 59.6731 18.0393 59.6731H18.0098V59.6436V59.4276V59.3981H18.0393H18.1375C18.4026 59.3883 18.6481 59.3687 18.6481 59.0152V55.1759C18.6481 54.8126 18.4026 54.7929 18.1375 54.7929H18V54.7635V54.5082H18.0295C18.3142 54.5082 18.7561 54.5376 19.1194 54.5376C19.4827 54.5376 19.9246 54.5082 20.2682 54.5082H20.2977V54.5376V54.7929H20.2682H20.17C19.9049 54.8028 19.6594 54.8224 19.6594 55.1759V59.0152C19.6594 59.3785 19.9049 59.3981 20.17 59.3981H20.3075V59.4276V59.6731H20.2781Z" fill="#231815"/>
<path d="M25.3054 58.2L25.3152 58.1804V55.431C25.3152 54.832 24.893 54.7437 24.677 54.7437H24.5199V54.5276C24.8635 54.5276 25.1974 54.5571 25.5411 54.5571C25.8455 54.5571 26.14 54.5276 26.4444 54.5276V54.7437H26.3364C26.032 54.7437 25.6785 54.8026 25.6785 55.6765V59.0052C25.6785 59.2605 25.6884 59.5158 25.7178 59.7416H25.4429L21.6723 55.539V58.5535C21.6723 59.1918 21.7901 59.4078 22.3596 59.4078H22.4873V59.6238C22.1731 59.6238 21.8589 59.5944 21.5447 59.5944C21.2206 59.5944 20.8769 59.6238 20.5529 59.6238V59.4078H20.6511C21.1617 59.4078 21.309 59.0641 21.309 58.475V55.3917C21.309 54.9793 20.9751 54.7338 20.6413 54.7338H20.5431V54.5178C20.818 54.5178 21.1028 54.5473 21.3875 54.5473C21.6134 54.5473 21.8196 54.5178 22.0356 54.5178L25.3054 58.2Z" fill="#231815"/>
<path d="M25.3054 58.2L25.325 58.1804L25.3054 58.2ZM25.4527 59.722H25.6982C25.6589 59.506 25.6589 59.2605 25.6589 59.015V55.6765C25.6589 54.8026 26.032 54.7142 26.3462 54.7142H26.4248V54.5571C26.14 54.5571 25.8455 54.5865 25.5509 54.5865C25.217 54.5865 24.893 54.5571 24.5591 54.5571V54.7142H24.6868C24.9126 54.7142 25.3545 54.8124 25.3545 55.431L25.3447 58.2L25.325 58.2098L25.3054 58.2295L22.0454 54.5473C21.8294 54.5473 21.6134 54.5767 21.3974 54.5767C21.1322 54.5767 20.8573 54.5473 20.5824 54.5473V54.7044H20.6511C20.9948 54.7044 21.3483 54.9695 21.3483 55.3917V58.4749C21.3483 59.0641 21.1813 59.4372 20.6609 59.4372H20.5922V59.5943C20.9064 59.5943 21.2402 59.5649 21.5545 59.5649C21.8589 59.5649 22.1632 59.5943 22.4676 59.5943V59.4372H22.3793C21.7999 59.4372 21.6625 59.1819 21.6625 58.5437V55.4408L25.4527 59.722ZM25.7374 59.7809L25.433 59.7711L21.7214 55.6274V58.5633C21.7312 59.2016 21.8294 59.3783 22.3793 59.3881H22.5364V59.4176V59.6631H22.4971C22.1829 59.6631 21.8589 59.6336 21.5545 59.6336C21.2304 59.6336 20.8867 59.6631 20.5627 59.6631H20.5333V59.6336V59.3783H20.5627H20.6609C21.1421 59.3783 21.2795 59.0641 21.2893 58.4848V55.4015C21.2893 55.0088 20.9653 54.7731 20.6511 54.7731H20.5234V54.7436V54.4982H20.5529C20.8278 54.4982 21.1224 54.5276 21.3974 54.5276C21.6134 54.5276 21.8294 54.4982 22.0749 54.508L25.2956 58.1313V55.4408C25.2956 54.8615 24.9028 54.7927 24.6868 54.7829H24.4904V54.7535V54.508H24.5199C24.8635 54.508 25.2072 54.5374 25.5411 54.5374C25.8356 54.5374 26.14 54.508 26.4444 54.508H26.4739V54.5374V54.7927H26.4444H26.3364C26.032 54.8026 25.7276 54.832 25.7178 55.6863V59.0248C25.7178 59.2801 25.7276 59.5354 25.7571 59.7613L25.7669 59.8005H25.7374V59.7809Z" fill="#231815"/>
<path d="M27.5442 54.8911C26.9943 54.8911 26.9747 55.0187 26.8667 55.5588H26.6506C26.6801 55.3526 26.7194 55.1464 26.739 54.9402C26.7685 54.734 26.7783 54.5278 26.7783 54.3216H26.955C27.0139 54.5376 27.2005 54.5376 27.3969 54.5376H31.1773C31.3737 54.5376 31.5602 54.5278 31.5701 54.3118L31.7468 54.3412C31.7173 54.5376 31.6879 54.734 31.6683 54.9304C31.6486 55.1268 31.6486 55.3231 31.6486 55.5195L31.4326 55.5981C31.413 55.3231 31.3835 54.8911 30.8925 54.8911H29.6946V58.7893C29.6946 59.349 29.9499 59.4178 30.3034 59.4178H30.4409V59.6338C30.1561 59.6338 29.6455 59.6043 29.2429 59.6043C28.801 59.6043 28.2904 59.6338 28.0057 59.6338V59.4178H28.1432C28.5457 59.4178 28.7519 59.3785 28.7519 58.7991V54.8911H27.5442Z" fill="#231815"/>
<path d="M30.4312 59.673C30.1464 59.673 29.6358 59.6435 29.2332 59.6435C28.7914 59.6435 28.2808 59.673 27.996 59.673H27.9666V59.6435V59.3882H27.996H28.1335C28.5361 59.3784 28.703 59.3784 28.7128 58.8089V54.9303H27.5443V54.9008V54.8714H28.7816V58.8187C28.7816 59.4078 28.5459 59.4668 28.1433 59.4668H28.0353V59.6239C28.3201 59.6239 28.8208 59.5944 29.2431 59.5944C29.626 59.5944 30.117 59.6239 30.4017 59.6239V59.4668H30.2937C29.9402 59.4668 29.6555 59.3784 29.6555 58.8089V54.8812H30.8927C31.3837 54.8812 31.4524 55.3034 31.4622 55.5685L31.6193 55.5096C31.6193 55.323 31.6193 55.1267 31.6291 54.9303C31.6488 54.7437 31.6782 54.5572 31.7077 54.3706L31.5997 54.3509C31.5604 54.567 31.364 54.5768 31.1775 54.567H27.3971H27.3578C27.181 54.567 26.9945 54.5571 26.9257 54.3509H26.8079C26.8079 54.5571 26.7883 54.7535 26.7686 54.9401C26.749 55.1463 26.7097 55.3329 26.6901 55.5293H26.8472C26.9454 55.0187 27.0043 54.8517 27.5542 54.8615V54.891V54.9205C27.0141 54.9303 27.0239 55.0187 26.9061 55.5587V55.5882H26.8766H26.6213L26.6312 55.5489C26.6606 55.3427 26.6999 55.1365 26.7195 54.9303C26.749 54.7241 26.7588 54.5277 26.7588 54.3117V54.2822H26.7883H26.9846L26.9945 54.3019C27.0436 54.4884 27.181 54.4884 27.3676 54.4884H27.4069H31.1873C31.3935 54.4884 31.5408 54.4786 31.5506 54.292V54.2626L31.58 54.2724L31.7862 54.3019V54.3313C31.7568 54.5277 31.7273 54.7241 31.7077 54.9205C31.6881 55.1168 31.6881 55.3132 31.6881 55.5096V55.5293L31.6684 55.5391L31.4131 55.6373V55.598C31.3935 55.323 31.364 54.9205 30.9025 54.9205H29.734V58.7892C29.7438 59.3391 29.9599 59.3784 30.3035 59.3882H30.4705V59.4177V59.6631H30.4312V59.673Z" fill="#231815"/>
<path d="M31.9825 59.4176H32.0807C32.3459 59.4176 32.6208 59.3783 32.6208 58.9954V55.1561C32.6208 54.7731 32.3459 54.7338 32.0807 54.7338H31.9825V54.5178C32.4244 54.5178 33.1903 54.5473 33.7991 54.5473C34.4177 54.5473 35.1738 54.5178 35.6746 54.5178C35.6647 54.832 35.6746 55.3132 35.6942 55.6372L35.4782 55.6961C35.4389 55.2248 35.3604 54.8419 34.5846 54.8419H33.5634V56.7566H34.4373C34.8792 56.7566 34.9676 56.5111 35.0167 56.1085H35.2327C35.2229 56.3933 35.2131 56.678 35.2131 56.9628C35.2131 57.2377 35.2229 57.5225 35.2327 57.7974L35.0167 57.8367C34.9774 57.3949 34.9479 57.1101 34.4472 57.1101H33.5733V58.8186C33.5733 59.2998 33.9955 59.2998 34.4668 59.2998C35.3505 59.2998 35.7335 59.2409 35.9593 58.4062L36.1655 58.4553C36.0673 58.8481 35.979 59.231 35.92 59.6238C35.4487 59.6238 34.6043 59.5944 33.9464 59.5944C33.2885 59.5944 32.4146 59.6238 32.0022 59.6238V59.4176H31.9825Z" fill="#231815"/>
<path d="M35.8708 59.6042C35.9297 59.231 36.0181 58.8677 36.1065 58.4946L35.9592 58.4553C35.7432 59.2801 35.3111 59.3489 34.447 59.3391C33.9855 59.3391 33.524 59.3391 33.524 58.8285V57.0905H34.4372C34.9478 57.0806 34.9969 57.3948 35.0362 57.8073L35.1933 57.7778C35.1835 57.5127 35.1736 57.2377 35.1736 56.9726C35.1736 56.6977 35.1835 56.4227 35.1933 56.1478H35.0362C34.9969 56.5308 34.8791 56.7959 34.4274 56.7959H33.524V54.8124H34.5747C35.3406 54.8026 35.4584 55.1953 35.4977 55.6569L35.6548 55.6176C35.645 55.4114 35.6351 55.1463 35.6351 54.9008C35.6351 54.7731 35.6351 54.6553 35.645 54.5571C35.1442 54.5571 34.4077 54.5866 33.7989 54.5866C33.2 54.5866 32.4537 54.5571 32.0118 54.5571V54.7142H32.0806C32.3457 54.7142 32.6501 54.7633 32.6501 55.1659V59.0052C32.6501 59.4078 32.3359 59.4569 32.0806 59.4569H32.0118V59.614C32.4439 59.614 33.2883 59.5845 33.9266 59.5845C34.5747 59.5845 35.3995 59.6042 35.8708 59.6042ZM35.9003 59.6729C35.4289 59.6729 34.5845 59.6434 33.9266 59.6434C33.2687 59.6434 32.3948 59.6729 31.9824 59.6729H31.9529V59.6434V59.4274V59.398H31.9824H32.0806C32.3457 59.398 32.5912 59.3685 32.5912 59.015V55.1757C32.5912 54.8222 32.3457 54.7928 32.0806 54.7928H31.9431V54.7633V54.5178H31.9726C32.4243 54.5178 33.1803 54.5473 33.7891 54.5473C34.4077 54.5473 35.1638 54.5178 35.6646 54.5178H35.6941V54.5473C35.6842 54.6553 35.6842 54.7928 35.6842 54.9204C35.6842 55.1757 35.6941 55.4506 35.7039 55.6569V55.6863L35.6842 55.6961L35.4289 55.7649V55.7256C35.3897 55.2543 35.3209 54.9008 34.5648 54.9008H33.5927V56.7566H34.4372C34.8594 56.7566 34.938 56.5406 34.9871 56.138V56.1085H35.0165H35.2718V56.138C35.262 56.4227 35.2522 56.7075 35.2522 56.9923C35.2522 57.2672 35.262 57.5421 35.2718 57.8269V57.8564H35.2424L34.9871 57.9055V57.8662C34.938 57.4145 34.938 57.1788 34.447 57.169H33.5927V58.8481C33.5927 59.29 33.9757 59.29 34.4568 59.29C35.3406 59.2801 35.6941 59.2409 35.9101 58.416L35.9199 58.3866L35.9494 58.3964L36.185 58.4553L36.1752 58.4848C36.077 58.8677 35.9886 59.2605 35.9297 59.6533L35.9199 59.6729H35.9003Z" fill="#231815"/>
<path d="M38.0705 57.0022H38.4239C39.1604 57.0022 39.5532 56.7272 39.5532 55.8631C39.5532 55.2151 39.1407 54.7928 38.4829 54.7928C38.257 54.7928 38.1686 54.8125 38.0705 54.8223V57.0022ZM37.1376 55.3034C37.1376 54.7732 36.8431 54.7437 36.6172 54.7437H36.4896V54.5277C36.7252 54.5277 37.1769 54.5572 37.6286 54.5572C38.0705 54.5572 38.4239 54.5277 38.8069 54.5277C39.7299 54.5277 40.5449 54.7732 40.5449 55.814C40.5449 56.4719 40.103 56.8745 39.5237 57.1003L40.7707 58.9758C40.9769 59.29 41.1242 59.3686 41.4777 59.4177V59.6337C41.2322 59.6337 40.9966 59.6042 40.7609 59.6042C40.5351 59.6042 40.2994 59.6337 40.0736 59.6337C39.5139 58.8973 39.0229 58.1019 38.5516 57.2575H38.0705V58.8285C38.0705 59.3882 38.3356 59.4177 38.6694 59.4177H38.7971V59.6337C38.3847 59.6337 37.9526 59.6042 37.5402 59.6042C37.1867 59.6042 36.843 59.6337 36.4797 59.6337V59.4177H36.6074C36.8823 59.4177 37.1278 59.29 37.1278 59.0249V55.3034H37.1376Z" fill="#231815"/>
<path d="M38.424 56.9726C39.1507 56.9628 39.514 56.7173 39.5238 55.863C39.5238 55.2248 39.1212 54.8222 38.4829 54.8222C38.2866 54.8222 38.1884 54.8418 38.1 54.8517V56.9726H38.424ZM38.0705 57.0315H38.0411V54.7927H38.0705C38.1687 54.7829 38.2669 54.7633 38.4928 54.7633C39.1605 54.7633 39.5925 55.1953 39.5925 55.863C39.5925 56.7369 39.1703 57.0315 38.4339 57.0315H38.0705ZM38.0705 57.2377H38.5713L38.5811 57.2574C39.0623 58.1018 39.5434 58.8874 40.0835 59.614C40.3093 59.614 40.545 59.5845 40.7708 59.5845C41.0065 59.5845 41.2323 59.614 41.4582 59.614V59.4569C41.1145 59.4176 40.9574 59.3096 40.7512 59.0052L39.4747 57.1003L39.514 57.0806C40.0835 56.8548 40.5155 56.462 40.5155 55.8238C40.5155 54.8026 39.7202 54.5669 38.807 54.5669C38.424 54.5669 38.0705 54.5964 37.6287 54.5964C37.1966 54.5964 36.7646 54.5669 36.5289 54.5669V54.724H36.6271C36.853 54.724 37.177 54.7633 37.177 55.3132V59.0346C37.177 59.3292 36.9021 59.4667 36.6271 59.4667H36.5289V59.6238C36.8824 59.6238 37.2163 59.5943 37.5599 59.5943C37.9723 59.5943 38.3848 59.6238 38.7873 59.6238V59.4667H38.6891C38.3553 59.4667 38.0607 59.4274 38.0607 58.8481V57.2475H38.0705V57.2377ZM41.4876 59.6729C41.2421 59.6729 41.0065 59.6434 40.7708 59.6434C40.545 59.6434 40.3093 59.6729 40.054 59.6631C39.4943 58.9266 39.0132 58.1411 38.5419 57.3065H38.1098V58.8383C38.1196 59.3881 38.3357 59.3881 38.6793 59.3881H38.8463V59.4176V59.6631H38.7972C38.3749 59.6631 37.9527 59.6336 37.5403 59.6336C37.1966 59.6336 36.8431 59.6631 36.4798 59.6631H36.4504V59.6336V59.3783H36.4798H36.6075C36.8726 59.3783 37.0984 59.2605 37.0984 59.015V55.3033C37.0886 54.7829 36.8333 54.7829 36.6075 54.7829H36.4406V54.7535V54.4982H36.47C36.7057 54.4982 37.1574 54.5276 37.609 54.5276C38.0509 54.5276 38.3946 54.4982 38.7873 54.4982C39.7103 54.4982 40.5646 54.7535 40.5646 55.8238C40.5646 56.4816 40.1228 56.8941 39.5631 57.1297L40.7905 58.9757C40.9967 59.2801 41.1243 59.3587 41.4778 59.398H41.5073V59.4274V59.6729H41.4876Z" fill="#231815"/>
<path d="M46.4562 58.2L46.466 58.1804V55.431C46.466 54.832 46.0438 54.7437 45.8277 54.7437H45.6706V54.5276C46.0143 54.5276 46.3482 54.5571 46.6918 54.5571C46.9962 54.5571 47.2908 54.5276 47.5952 54.5276V54.7437H47.4872C47.1828 54.7437 46.8391 54.8026 46.8391 55.6765V59.0052C46.8391 59.2605 46.8489 59.5158 46.8882 59.7416H46.6133L42.8427 55.539V58.5535C42.8427 59.1918 42.9704 59.4078 43.5301 59.4078H43.6577V59.6238C43.3435 59.6238 43.0293 59.5944 42.7151 59.5944C42.3812 59.5944 42.0474 59.6238 41.7233 59.6238V59.4078H41.8215C42.3321 59.4078 42.4794 59.0641 42.4794 58.475V55.3917C42.4794 54.9793 42.1455 54.7338 41.8117 54.7338H41.7135V54.5178C41.9884 54.5178 42.2732 54.5473 42.5481 54.5473C42.7642 54.5473 42.9802 54.5178 43.206 54.5178L46.4562 58.2Z" fill="#231815"/>
<path d="M46.4559 58.1999L46.4755 58.1803L46.4559 58.1999ZM46.6032 59.7219H46.8487C46.8192 59.5059 46.8094 59.2604 46.8094 59.0149V55.6764C46.8094 54.8025 47.1825 54.7141 47.4967 54.7141H47.5753V54.557C47.2905 54.557 46.996 54.5865 46.7112 54.5865C46.3774 54.5865 46.0435 54.557 45.7195 54.557V54.7141H45.8471C46.073 54.7141 46.5148 54.8123 46.5148 55.4309L46.505 58.1999L46.4952 58.2098L46.4755 58.2294L43.2156 54.5472C42.9995 54.5472 42.7835 54.5767 42.5675 54.5767C42.2926 54.5767 42.0176 54.5472 41.7525 54.5472V54.7043H41.8212C42.1649 54.7043 42.5184 54.9694 42.5184 55.3917V58.4749C42.5184 59.064 42.3515 59.4372 41.8311 59.4372H41.7623V59.5943C42.0765 59.5943 42.4104 59.5648 42.7246 59.5648C43.029 59.5648 43.3334 59.5943 43.6378 59.5943V59.4372H43.5396C42.9603 59.4372 42.8228 59.1819 42.813 58.5436V55.4407L46.6032 59.7219ZM46.8781 59.7808L46.5737 59.771L42.8621 55.6273V58.5633C42.8719 59.2015 42.9701 59.3782 43.52 59.3881H43.6771V59.4175V59.663H43.6476C43.3334 59.663 43.0192 59.6335 42.705 59.6335C42.3809 59.6335 42.0373 59.663 41.7132 59.663H41.674V59.6335V59.3783H41.7132H41.8114C42.2926 59.3783 42.43 59.064 42.4398 58.4847V55.4015C42.4398 55.0087 42.1158 54.773 41.8114 54.773H41.6838V54.7436V54.4883H41.723C41.998 54.4883 42.2926 54.5177 42.5675 54.5177C42.7835 54.5177 42.9995 54.4883 43.2352 54.4981L46.4559 58.1214V55.4309C46.4559 54.8516 46.0631 54.773 45.8471 54.773H45.6507V54.7436V54.4883H45.6802C46.0239 54.4883 46.3675 54.5177 46.7112 54.5177C47.0058 54.5177 47.3102 54.4883 47.6146 54.4883H47.644V54.5177V54.773H47.6146H47.5066C47.2022 54.7829 46.8978 54.8123 46.888 55.6666V59.0051C46.888 59.2604 46.8978 59.5157 46.9272 59.7416V59.7808H46.8781Z" fill="#231815"/>
<path d="M49.8437 55.3526H49.824L49.1465 57.4245H50.5114L49.8437 55.3526ZM48.7734 58.593C48.6948 58.8384 48.6064 59.0348 48.6064 59.1625C48.6064 59.3785 48.9108 59.4178 49.1563 59.4178H49.2349V59.6338C48.9403 59.6142 48.6457 59.6043 48.3511 59.6043C48.086 59.6043 47.8209 59.6142 47.5558 59.6338V59.4178H47.6049C47.8896 59.4178 48.1351 59.2508 48.2431 58.9366L49.4116 55.5785C49.5098 55.3035 49.6375 54.9402 49.6866 54.6653C49.9222 54.5867 50.2168 54.4394 50.3543 54.3511C50.3739 54.3412 50.3935 54.3314 50.4132 54.3314C50.4328 54.3314 50.4525 54.3314 50.4623 54.3511C50.4819 54.41 50.5015 54.4787 50.531 54.5376L51.8762 58.3671C51.9646 58.6224 52.053 58.8974 52.1414 59.1134C52.2297 59.3196 52.3868 59.408 52.6225 59.408H52.6618V59.624C52.3377 59.6043 52.0039 59.5945 51.6504 59.5945C51.2871 59.5945 50.9238 59.6043 50.5506 59.624V59.408H50.6292C50.7961 59.408 51.0809 59.3785 51.0809 59.1919C51.0809 59.0937 51.0122 58.8974 50.9336 58.6617L50.6488 57.8172H49.009L48.7734 58.593Z" fill="#231815"/>
<path d="M49.8142 55.3624L49.8338 55.3525L49.8142 55.3624ZM49.1956 57.3851H50.4819L49.8436 55.4213L49.1956 57.3851ZM49.1072 57.4539L49.8044 55.3133H49.8338H49.8535V55.3427H49.8436H49.8535V55.3133H49.8731L50.5703 57.4539H49.1072ZM50.5997 59.6043C50.963 59.5945 51.3165 59.5748 51.67 59.5748C52.0137 59.5748 52.3279 59.5846 52.6421 59.6043V59.4472H52.6323C52.3868 59.4472 52.2101 59.349 52.1217 59.1329C52.0235 58.9071 51.9351 58.642 51.8468 58.3867L50.5015 54.5572C50.4819 54.4983 50.4623 54.4295 50.4426 54.3804C50.4328 54.3706 50.4426 54.3706 50.4328 54.3706H50.4132C50.4033 54.3706 50.3935 54.3706 50.3739 54.3804C50.2364 54.4688 49.9418 54.6161 49.7258 54.675C49.6767 54.95 49.5491 55.3133 49.4509 55.5882L48.2824 58.9464C48.1744 59.2606 47.9191 59.4472 47.6147 59.4472H47.6049V59.6043C47.8602 59.5945 48.1056 59.5748 48.3609 59.5748C48.6457 59.5748 48.9305 59.5846 49.2152 59.6043V59.4472H49.1661C48.9305 59.4472 48.5966 59.4177 48.5868 59.1624C48.5868 59.0151 48.6752 58.8286 48.7537 58.5831L48.7832 58.5929L48.7537 58.5831L48.9894 57.7975H50.6979L50.9925 58.6714C51.071 58.9071 51.1398 59.1035 51.1398 59.2115C51.13 59.4373 50.8157 59.4472 50.6586 59.457H50.6095V59.6043H50.5997ZM52.6814 59.673C52.3574 59.6632 52.0235 59.6435 51.67 59.6435C51.3067 59.6435 50.9434 59.6632 50.5703 59.673H50.5408V59.6435V59.3882H50.5703H50.6488C50.8157 59.3882 51.0711 59.349 51.0711 59.2115C51.0711 59.1329 51.0023 58.9267 50.9238 58.6911L50.639 57.8663H49.0188L48.793 58.6027C48.7144 58.8482 48.6359 59.0446 48.6359 59.1624C48.6359 59.3392 48.9108 59.3882 49.1563 59.3882H49.2741V59.4275V59.6828H49.2447C48.9501 59.673 48.6555 59.6534 48.3609 59.6534C48.0958 59.6534 47.8307 59.673 47.5754 59.6828H47.5361V59.6534V59.3981H47.5656H47.6147C47.8896 59.3981 48.1155 59.241 48.2235 58.9464L49.392 55.5882C49.4902 55.3133 49.6178 54.95 49.6865 54.6554C49.9124 54.5768 50.207 54.4295 50.3542 54.3412C50.3739 54.3314 50.3935 54.3215 50.423 54.3215C50.4426 54.3215 50.4819 54.3215 50.5015 54.3608C50.5212 54.4197 50.5506 54.4885 50.5703 54.5474L51.9155 58.3769C52.0039 58.6322 52.0922 58.9071 52.1904 59.1231C52.2788 59.3195 52.4065 59.3981 52.6421 59.3981H52.7207V59.4373V59.6926L52.6814 59.673Z" fill="#231815"/>
<path d="M53.0054 54.8911C52.4555 54.8911 52.4359 55.0187 52.3278 55.5588H52.1118C52.1413 55.3526 52.1805 55.1464 52.2002 54.9402C52.2296 54.734 52.2395 54.5278 52.2395 54.3216H52.4162C52.4751 54.5376 52.6617 54.5376 52.8581 54.5376H56.6385C56.8349 54.5376 57.0214 54.5278 57.0312 54.3118L57.208 54.3412C57.1785 54.5376 57.1491 54.734 57.1294 54.9304C57.1098 55.1268 57.1098 55.3231 57.1098 55.5195L56.8938 55.5981C56.884 55.3231 56.8447 54.8911 56.3537 54.8911H55.1558V58.7893C55.1558 59.349 55.4111 59.4178 55.7646 59.4178H55.902V59.6338C55.6173 59.6338 55.1067 59.6043 54.7041 59.6043C54.2622 59.6043 53.7516 59.6338 53.4669 59.6338V59.4178H53.6043C54.0069 59.4178 54.2131 59.3785 54.2131 58.7991V54.8911H53.0054Z" fill="#231815"/>
<path d="M55.8824 59.673C55.5977 59.673 55.0871 59.6435 54.6845 59.6435C54.2426 59.6435 53.732 59.673 53.4473 59.673H53.4178V59.6435V59.3882H53.4473H53.5847C53.9873 59.3784 54.1542 59.3784 54.1641 58.8089V54.9303H52.9956V54.9008V54.8714H54.2328V58.8187C54.2328 59.4078 53.9971 59.4668 53.5945 59.4668H53.4865V59.6239C53.7713 59.6239 54.2721 59.5944 54.6943 59.5944C55.0772 59.5944 55.5682 59.6239 55.853 59.6239V59.4668H55.7449C55.3915 59.4668 55.1067 59.3784 55.1067 58.8089V54.8812H56.3439C56.8349 54.8812 56.9036 55.3034 56.9134 55.5685L57.0705 55.5096C57.0705 55.323 57.0705 55.1267 57.0902 54.9401C57.1098 54.7535 57.1393 54.567 57.1687 54.3804L57.0607 54.3608C57.0313 54.5768 56.8251 54.5866 56.6385 54.5768H52.8581H52.8188C52.6421 54.5768 52.4555 54.567 52.3966 54.3608H52.2788C52.2788 54.567 52.2591 54.7634 52.2297 54.9597C52.21 55.1659 52.1708 55.3525 52.1511 55.5489H52.3082C52.4064 55.0383 52.4653 54.8714 53.0152 54.8812V54.9106V54.9401C52.4752 54.9499 52.485 55.0383 52.3671 55.5783L52.3475 55.598H52.318H52.0627V55.5587C52.0922 55.3525 52.1315 55.1463 52.1511 54.9401C52.1806 54.7339 52.2002 54.5277 52.2002 54.3215V54.292H52.2297H52.4261V54.3117C52.4752 54.4982 52.6126 54.4982 52.7992 54.4982C52.809 54.4982 52.8188 54.4982 52.8385 54.4982H56.6189C56.8251 54.4982 56.9724 54.4884 56.9822 54.3019V54.2626L57.0214 54.2724L57.2277 54.3019L57.2178 54.3313C57.1884 54.5277 57.1589 54.7241 57.1393 54.9205C57.1295 55.1168 57.1295 55.3132 57.1295 55.5096V55.5293L57.1098 55.5391L56.8545 55.6373V55.598C56.8349 55.323 56.8054 54.9205 56.3439 54.9205H55.1754V58.7892C55.1853 59.3391 55.4013 59.3784 55.7449 59.3882H55.9217V59.4177V59.6631H55.8824V59.673Z" fill="#231815"/>
<path d="M57.4731 59.4176H57.5713C57.8364 59.4176 58.1113 59.3783 58.1113 58.9954V55.1561C58.1113 54.7731 57.8364 54.7338 57.5713 54.7338H57.4731V54.5178C57.7578 54.5178 58.1997 54.5473 58.5532 54.5473C58.9263 54.5473 59.3584 54.5178 59.702 54.5178V54.7338H59.6038C59.3387 54.7338 59.0638 54.7731 59.0638 55.1561V58.9954C59.0638 59.3783 59.3387 59.4176 59.6038 59.4176H59.702V59.6336C59.3485 59.6336 58.9067 59.6042 58.5434 59.6042C58.1801 59.6042 57.748 59.6336 57.4633 59.6336V59.4176H57.4731Z" fill="#231815"/>
<path d="M59.6727 59.6042V59.4471H59.6039C59.3388 59.4471 59.0246 59.4078 59.0246 58.9954V55.1561C59.0246 54.7535 59.3388 54.7044 59.6039 54.7044H59.6727V54.5473C59.3388 54.5473 58.9166 54.5767 58.5533 54.5767C58.2096 54.5767 57.7874 54.5473 57.5026 54.5473V54.7044H57.5714C57.8365 54.7044 58.1409 54.7535 58.1409 55.1561V58.9954C58.1409 59.398 57.8267 59.4471 57.5714 59.4471H57.5026V59.6042C57.7874 59.6042 58.1998 59.5747 58.5435 59.5747C58.897 59.5845 59.3192 59.6042 59.6727 59.6042ZM59.7021 59.6729C59.3486 59.6729 58.9068 59.6434 58.5435 59.6434C58.1802 59.6434 57.7579 59.6729 57.4634 59.6729H57.4339V59.6434V59.4274V59.398H57.4634H57.5615C57.8267 59.398 58.0721 59.3685 58.0721 59.015V55.1757C58.0721 54.8222 57.8267 54.7928 57.5615 54.7928H57.4241V54.7633V54.5178H57.4535C57.7383 54.5178 58.1802 54.5473 58.5336 54.5473C58.897 54.5473 59.3388 54.5178 59.6825 54.5178H59.712V54.5473V54.8026H59.6825H59.5843C59.3192 54.8124 59.0737 54.832 59.0737 55.1855V59.0248C59.0737 59.3882 59.3192 59.4078 59.5843 59.4078H59.712V59.4372V59.6827H59.7021V59.6729Z" fill="#231815"/>
<path d="M62.7362 59.4275C64.16 59.4275 64.4055 58.1706 64.4055 57.1101C64.4055 56.0398 63.8261 54.7437 62.6086 54.7437C61.3222 54.7437 60.9491 55.8827 60.9491 56.8647C60.9491 58.1804 61.5481 59.4275 62.7362 59.4275ZM62.6184 54.4197C64.1796 54.4197 65.4267 55.3918 65.4267 56.9432C65.4267 58.6321 64.2189 59.7515 62.6577 59.7515C61.1062 59.7515 59.9181 58.7009 59.9181 57.12C59.9181 55.598 61.0964 54.4197 62.6184 54.4197Z" fill="#231815"/>
<path d="M60.91 56.8646C60.91 55.8827 61.2929 54.7142 62.6087 54.7142C63.8558 54.7142 64.4351 56.0398 64.4351 57.1101C64.4351 58.1804 64.1798 59.4569 62.7364 59.4569V59.4274V59.398C64.1307 59.398 64.3664 58.1804 64.3762 57.1101C64.3762 56.0496 63.8067 54.7731 62.6185 54.7731C61.3617 54.7731 60.9885 55.8925 60.9885 56.8646C60.9885 58.1706 61.5875 59.398 62.7462 59.398V59.4274V59.4569C61.5188 59.4569 60.9198 58.1804 60.91 56.8646ZM59.8888 57.1199C59.8888 55.5783 61.0867 54.3902 62.6185 54.3804V54.4098V54.4393C61.1162 54.4393 59.9477 55.598 59.9477 57.1101C59.9477 58.6714 61.1162 59.7024 62.6578 59.7024C64.1994 59.7024 65.3974 58.5928 65.3974 56.9334C65.3974 55.3917 64.17 54.4393 62.6185 54.4393V54.4196V54.3902C64.1896 54.3902 65.4563 55.3721 65.4563 56.953C65.4563 58.6517 64.2289 59.7908 62.6578 59.7908C61.0966 59.7809 59.8888 58.7106 59.8888 57.1199Z" fill="#231815"/>
<path d="M70.3658 58.2L70.3854 58.1804V55.431C70.3854 54.832 69.9632 54.7437 69.7472 54.7437H69.5901V54.5276C69.9337 54.5276 70.2676 54.5571 70.6113 54.5571C70.9157 54.5571 71.2102 54.5276 71.5146 54.5276V54.7437H71.3968C71.0924 54.7437 70.7487 54.8026 70.7487 55.6765V59.0052C70.7487 59.2605 70.7585 59.5158 70.7978 59.7416H70.5131L66.7425 55.539V58.5535C66.7425 59.1918 66.8701 59.4078 67.4298 59.4078H67.5575V59.6238C67.2433 59.6238 66.9291 59.5944 66.6148 59.5944C66.281 59.5944 65.9471 59.6238 65.6133 59.6238V59.4078H65.7213C66.2319 59.4078 66.3792 59.0641 66.3792 58.475V55.3917C66.3792 54.9793 66.0453 54.7338 65.7115 54.7338H65.6133V54.5178C65.8882 54.5178 66.1828 54.5473 66.4577 54.5473C66.6738 54.5473 66.8898 54.5178 67.1058 54.5178L70.3658 58.2Z" fill="#231815"/>
<path d="M70.3657 58.2002L70.3952 58.1806L70.3657 58.2002ZM70.513 59.7222H70.7487C70.7192 59.5062 70.7094 59.2607 70.7094 59.0152V55.6767C70.7094 54.7929 71.0826 54.7144 71.3968 54.7144H71.4753V54.5573C71.1906 54.5573 70.896 54.5867 70.6014 54.5867C70.2676 54.5867 69.9435 54.5573 69.6097 54.5573V54.7144H69.7373C69.9632 54.7144 70.405 54.8126 70.405 55.4312L70.3952 58.2002L70.3854 58.21L70.3559 58.2297L67.096 54.5475C66.8799 54.5475 66.6639 54.5769 66.4479 54.5769C66.1828 54.5769 65.9078 54.5475 65.6329 54.5475V54.7046H65.7016C66.0453 54.7046 66.3988 54.9697 66.3988 55.3919V58.4751C66.3988 59.0643 66.2319 59.4374 65.7114 59.4374H65.6427V59.5945C65.9667 59.5945 66.2908 59.5651 66.605 59.5651C66.9094 59.5651 67.2138 59.5945 67.5182 59.5945V59.4374H67.42C66.8407 59.4374 66.7032 59.1821 66.7032 58.5439V55.441L70.513 59.7222ZM70.788 59.7811L70.4836 59.7713L66.7621 55.6276V58.5635C66.7719 59.2018 66.8701 59.3785 67.42 59.3883H67.5771V59.4276V59.6731H67.5476C67.2334 59.6731 66.9192 59.6436 66.605 59.6436C66.281 59.6436 65.9373 59.6731 65.6034 59.6731H65.574V59.6436V59.3883H65.6034H65.7114C66.1926 59.3883 66.3301 59.0741 66.3399 58.4948V55.4115C66.3399 55.0188 66.0158 54.7831 65.7016 54.7831H65.574V54.7537V54.5082H65.6034C65.8882 54.5082 66.1729 54.5376 66.4479 54.5376C66.6639 54.5376 66.8799 54.5082 67.1254 54.518L70.3461 58.1413V55.4508C70.3461 54.8715 69.9533 54.8028 69.7373 54.7929H69.5409V54.7635V54.518H69.5704C69.9141 54.518 70.2577 54.5475 70.5916 54.5475C70.896 54.5475 71.1906 54.518 71.495 54.518H71.5244V54.5475V54.8028H71.495H71.3968C71.0924 54.8126 70.7782 54.842 70.7782 55.6963V59.0348C70.7782 59.2901 70.788 59.5454 70.8174 59.7713L70.8273 59.8106H70.788V59.7811Z" fill="#231815"/>
<path d="M73.7535 55.3526H73.7437L73.0563 57.4245H74.431L73.7535 55.3526ZM72.6832 58.593C72.6144 58.8384 72.5261 59.0348 72.5261 59.1625C72.5261 59.3785 72.8305 59.4178 73.0759 59.4178H73.1545V59.6338C72.8599 59.6142 72.5555 59.6043 72.2708 59.6043C72.0057 59.6043 71.7405 59.6142 71.4852 59.6338V59.4178H71.5245C71.8093 59.4178 72.0547 59.2508 72.1628 58.9366L73.3312 55.5785C73.4294 55.3035 73.5571 54.9402 73.5964 54.6653C73.832 54.5867 74.1266 54.4394 74.2641 54.3511C74.2837 54.3412 74.3033 54.3314 74.323 54.3314C74.3426 54.3314 74.3623 54.3314 74.3721 54.3511C74.3917 54.41 74.4212 54.4787 74.4408 54.5376L75.786 58.3671C75.8744 58.6224 75.9628 58.8974 76.061 59.1134C76.1494 59.3196 76.3065 59.408 76.5421 59.408H76.5912V59.624C76.2574 59.6043 75.9333 59.5945 75.5798 59.5945C75.2165 59.5945 74.8532 59.6043 74.4801 59.624V59.408H74.5586C74.7256 59.408 75.0103 59.3785 75.0103 59.1919C75.0103 59.0937 74.9416 58.8974 74.863 58.6617L74.5783 57.8172H72.9188L72.6832 58.593Z" fill="#231815"/>
<path d="M73.7241 55.3624L73.7339 55.3526L73.7241 55.3624ZM73.1054 57.3852H74.3819L73.7437 55.4213L73.1054 57.3852ZM73.0171 57.4539L73.7241 55.3133H73.7437H73.7633V55.3428H73.7535H73.7633V55.3133H73.783L74.4703 57.4539H73.0171ZM74.5096 59.6043C74.8729 59.5945 75.2264 59.5749 75.5799 59.5749C75.9236 59.5749 76.2378 59.5847 76.5618 59.6043V59.4472H76.552C76.3065 59.4472 76.1298 59.349 76.0414 59.133C75.9432 58.9072 75.8548 58.642 75.7664 58.3867L74.4212 54.5572C74.4016 54.4983 74.3721 54.4296 74.3623 54.3805C74.3427 54.3805 74.3427 54.3805 74.3427 54.3805H74.323C74.3034 54.3805 74.3034 54.3805 74.2837 54.3903C74.1463 54.4787 73.8517 54.626 73.6357 54.6849C73.5866 54.9598 73.4589 55.3231 73.3607 55.5981L72.1923 58.9563C72.0842 59.2705 71.8191 59.457 71.5245 59.457H71.5147V59.6141C71.77 59.6043 72.0155 59.5847 72.2708 59.5847C72.5556 59.5847 72.8403 59.5945 73.1251 59.6141V59.457H73.076C72.8403 59.457 72.5065 59.4276 72.4967 59.1723C72.4967 59.025 72.585 58.8384 72.6636 58.5929L72.693 58.6028L72.6636 58.5929L72.9091 57.8074H74.6176L74.9122 58.6813C74.9907 58.917 75.0595 59.1134 75.0595 59.2214C75.0496 59.4472 74.7452 59.457 74.5783 59.4669H74.5292V59.6043H74.5096ZM76.5913 59.6731C76.2574 59.6632 75.9334 59.6436 75.5799 59.6436C75.2264 59.6436 74.8533 59.6632 74.4801 59.6731H74.4507V59.6436V59.3883H74.4801H74.5587C74.7256 59.3883 74.9809 59.349 74.9809 59.2116C74.9809 59.133 74.9122 58.9268 74.8336 58.6911L74.5587 57.8663H72.9385L72.7127 58.6028C72.6439 58.8482 72.5556 59.0446 72.5556 59.1625C72.5556 59.3392 72.8305 59.3883 73.076 59.3883H73.184V59.4178V59.6731H73.1545C72.86 59.6632 72.5654 59.6436 72.2708 59.6436C72.0057 59.6436 71.7504 59.6632 71.4853 59.6731H71.4558V59.6436V59.3883H71.4853H71.5245C71.7995 59.3883 72.0253 59.2312 72.1333 58.9366L73.3018 55.5784C73.4 55.3035 73.5277 54.9402 73.5866 54.6456C73.8222 54.5671 74.1168 54.4198 74.2543 54.3314C74.2739 54.3216 74.2936 54.3118 74.323 54.3118C74.3427 54.3118 74.3819 54.3118 74.4016 54.3609C74.4212 54.4198 74.4409 54.4885 74.4703 54.5474L75.8155 58.3769C75.9039 58.6322 75.9923 58.9072 76.0905 59.1232C76.1789 59.3196 76.3065 59.3981 76.5422 59.3981H76.6207V59.4276V59.6829L76.5913 59.6731Z" fill="#231815"/>
<path d="M78.4371 58.9268C78.4371 59.2214 78.6433 59.3097 78.879 59.3392C79.1834 59.3588 79.5074 59.3588 79.8511 59.3196C80.1555 59.2803 80.4206 59.1035 80.558 58.9268C80.6759 58.7697 80.7446 58.5635 80.7839 58.3965H80.9999C80.9214 58.8188 80.8133 59.2214 80.725 59.6436C80.0867 59.6436 79.4387 59.6141 78.7906 59.6141C78.1425 59.6141 77.5043 59.6436 76.8562 59.6436V59.4276H76.9544C77.2195 59.4276 77.5043 59.3883 77.5043 58.9366V55.1758C77.5043 54.7929 77.2195 54.7536 76.9544 54.7536H76.8562V54.5376C77.2392 54.5376 77.6221 54.5671 78.0149 54.5671C78.388 54.5671 78.7513 54.5376 79.1244 54.5376V54.7536H78.9379C78.6629 54.7536 78.4371 54.7634 78.4371 55.1464V58.9268Z" fill="#231815"/>
<path d="M80.6859 59.6044C80.7743 59.2116 80.8626 58.8188 80.9412 58.426H80.7939C80.7448 58.5832 80.6859 58.7795 80.5681 58.9366C80.4306 59.1232 80.1655 59.3 79.8414 59.3392C79.6451 59.3589 79.4585 59.3687 79.2817 59.3687C79.1443 59.3687 79.0068 59.3589 78.8693 59.349C78.6337 59.3196 78.398 59.2214 78.398 58.9072V55.1268C78.398 54.7144 78.6533 54.6947 78.9283 54.6947H79.0755V54.5376C78.7122 54.5376 78.3587 54.5671 77.9954 54.5671C77.6125 54.5671 77.2492 54.5376 76.8662 54.5376V54.6947H76.935C77.2001 54.6947 77.5143 54.7438 77.5143 55.1464V58.9072C77.5143 59.3785 77.2001 59.4276 76.935 59.4276H76.8662V59.5847C77.4946 59.5847 78.1329 59.5553 78.7711 59.5553C79.4192 59.5847 80.0476 59.6044 80.6859 59.6044ZM80.7055 59.6731C80.0575 59.6731 79.4192 59.6436 78.7711 59.6436C78.1329 59.6436 77.4848 59.6731 76.8368 59.6731H76.8073V59.6436V59.3883H76.8368H76.935C77.2001 59.3785 77.4456 59.3687 77.4554 58.9268V55.1661C77.4554 54.8126 77.2001 54.7831 76.935 54.7831H76.7975V54.7537V54.5082H76.8269C77.2197 54.5082 77.6027 54.5376 77.9856 54.5376C78.3587 54.5376 78.722 54.5082 79.0952 54.5082H79.1246V54.5376V54.7929H79.0952H78.9086C78.6239 54.8028 78.4471 54.7831 78.4373 55.1562V58.9366C78.4373 59.2116 78.6239 59.2803 78.8497 59.3098C78.9773 59.3196 79.1148 59.3294 79.2523 59.3294C79.429 59.3294 79.6156 59.3196 79.812 59.3C80.1066 59.2607 80.3619 59.0938 80.4895 58.917C80.5975 58.7599 80.6663 58.5635 80.7055 58.4064L80.7153 58.377H80.735H80.9903L80.9805 58.4162C80.9019 58.8384 80.7939 59.241 80.7055 59.6633L80.6957 59.6829H80.7055V59.6731Z" fill="#231815"/>
</svg>
