<svg width="100" height="64" viewBox="0 0 100 64" fill="none" xmlns="http://www.w3.org/2000/svg">
<rect x="0.5" y="0.5" width="99" height="63" rx="3.5" fill="white" stroke="#C8C8C8"/>
<path d="M26.2982 63.2429H95.6587C97.5052 63.2429 99 61.7481 99 59.9015V36.4403C92.3413 40.6609 67.2494 55.2093 26.2982 63.2429Z" fill="#F58220"/>
<path d="M51.2835 25.0446C47.4336 25.0446 44.3181 28.0488 44.3181 31.7541C44.3181 35.693 47.3001 38.6416 51.2835 38.6416C55.1668 38.6416 58.2267 35.6596 58.2267 31.832C58.2267 28.0377 55.178 25.0446 51.2835 25.0446Z" fill="url(#paint0_radial)"/>
<path d="M11.7386 25.2885H8V38.3514H11.7275C13.7081 38.3514 15.1323 37.8841 16.3897 36.8493C17.8807 35.6142 18.7597 33.756 18.7597 31.8311C18.7486 27.97 15.8667 25.2885 11.7386 25.2885ZM14.7206 35.1024C13.9195 35.8256 12.8847 36.1372 11.2268 36.1372H10.5369V27.5027H11.2268C12.8736 27.5027 13.875 27.792 14.7206 28.5598C15.5997 29.3498 16.1226 30.5515 16.1226 31.8088C16.1226 33.0661 15.5997 34.3235 14.7206 35.1024Z" fill="#001722"/>
<path d="M22.4759 25.2892H19.9279V38.3522H22.4759V25.2892Z" fill="#001722"/>
<path d="M28.7071 30.2963C27.1716 29.7288 26.7265 29.3616 26.7265 28.6495C26.7265 27.8261 27.5277 27.203 28.6292 27.203C29.397 27.203 30.0201 27.5145 30.6877 28.2601L32.0229 26.5243C30.9214 25.5562 29.6195 25.0778 28.1841 25.0778C25.8698 25.0778 24.1117 26.68 24.1117 28.8164C24.1117 30.619 24.9351 31.5425 27.3274 32.3993C28.3288 32.7553 28.8295 32.989 29.0854 33.1448C29.5973 33.4786 29.8532 33.9459 29.8532 34.4911C29.8532 35.5482 29.0075 36.327 27.8726 36.327C26.6598 36.327 25.6806 35.7262 25.0909 34.5912L23.4441 36.1824C24.6124 37.9071 26.0255 38.6637 27.9616 38.6637C30.6098 38.6637 32.468 36.8945 32.468 34.3687C32.4569 32.2991 31.6001 31.3645 28.7071 30.2963Z" fill="#001722"/>
<path d="M33.2579 31.8319C33.2579 35.6707 36.2733 38.6527 40.1566 38.6527C41.2582 38.6527 42.1928 38.4413 43.35 37.8849V34.8918C42.3264 35.9155 41.4251 36.3161 40.2679 36.3161C37.6976 36.3161 35.8839 34.4579 35.8839 31.8097C35.8839 29.3061 37.7643 27.3255 40.1566 27.3255C41.3694 27.3255 42.293 27.7595 43.35 28.7943V25.8011C42.2373 25.2337 41.3138 25 40.2122 25C36.3512 25 33.2579 28.0376 33.2579 31.8319Z" fill="#001722"/>
<path d="M63.9905 34.0683L60.5078 25.2892H57.7261L63.2673 38.686H64.6359L70.2772 25.2892H67.5177L63.9905 34.0683Z" fill="#001722"/>
<path d="M71.4343 38.3522H78.6557V36.1379H73.9824V32.6107H78.4776V30.3964H73.9824V27.5034H78.6557V25.2892H71.4343V38.3522Z" fill="#001722"/>
<path d="M88.7479 29.1506C88.7479 26.7026 87.0677 25.3007 84.1302 25.3007H80.3471V38.3636H82.8952V33.1117H83.229L86.7562 38.3636H89.894L85.777 32.8558C87.6909 32.4553 88.7479 31.1423 88.7479 29.1506ZM83.6295 31.2981H82.884V27.3369H83.6629C85.2541 27.3369 86.1108 28.0045 86.1108 29.273C86.122 30.5971 85.2652 31.2981 83.6295 31.2981Z" fill="#001722"/>
<path d="M90.5391 26.2684C90.5391 26.0347 90.3833 25.9124 90.1052 25.9124H89.738V27.0696H90.0161V26.6245L90.3388 27.0696H90.6838L90.2943 26.5911C90.4501 26.5466 90.5391 26.4242 90.5391 26.2684ZM90.0607 26.4242H90.005V26.1238H90.0607C90.1942 26.1238 90.2609 26.1683 90.2609 26.2684C90.2721 26.3686 90.1942 26.4242 90.0607 26.4242Z" fill="#231F20"/>
<path d="M90.1609 25.4785C89.6046 25.4785 89.1595 25.9236 89.1595 26.4799C89.1595 27.0363 89.6046 27.4814 90.1609 27.4814C90.7061 27.4814 91.1512 27.0252 91.1512 26.4799C91.1512 25.9347 90.7061 25.4785 90.1609 25.4785ZM90.1609 27.3033C89.7158 27.3033 89.3598 26.9361 89.3598 26.4799C89.3598 26.0237 89.7158 25.6565 90.1609 25.6565C90.5949 25.6565 90.9509 26.0237 90.9509 26.4799C90.9509 26.9361 90.5949 27.3033 90.1609 27.3033Z" fill="#231F20"/>
<defs>
<radialGradient id="paint0_radial" cx="0" cy="0" r="1" gradientUnits="userSpaceOnUse" gradientTransform="translate(51.2715 31.8454) scale(6.87753)">
<stop offset="0.005618" stop-color="#FFEEE0"/>
<stop offset="0.1096" stop-color="#FEE9D7"/>
<stop offset="0.2793" stop-color="#FDDBBF"/>
<stop offset="0.4935" stop-color="#FBC597"/>
<stop offset="0.744" stop-color="#F8A560"/>
<stop offset="1" stop-color="#F48120"/>
</radialGradient>
</defs>
</svg>
