<svg width="100" height="64" viewBox="0 0 100 64" fill="none" xmlns="http://www.w3.org/2000/svg">
<rect x="0.5" y="0.5" width="99" height="63" rx="3.5" fill="white" stroke="#C8C8C8"/>
<g clip-path="url(#clip0)">
<path d="M86 48.6938C86 54.9373 80.9855 60.0023 74.7992 60.0023H14V15.3085C14 9.06273 19.0145 4 25.2008 4H86V48.6938Z" fill="white"/>
<path d="M66.1768 37.2417H70.8074C70.9519 37.2417 71.2274 37.2189 71.3606 37.1892C72.2501 36.9955 72.9907 36.1977 72.9907 35.1126C72.9907 34.0276 72.2501 33.2275 71.3606 33.0338C71.2296 33.0041 70.9542 32.9813 70.8074 32.9813H66.1768V37.2417Z" fill="url(#paint0_linear)"/>
<path d="M70.2656 7.77026C65.8472 7.77026 62.2664 11.3855 62.2664 15.8465V24.2349H73.5868C73.8487 24.2349 74.1693 24.2532 74.3702 24.2646C76.9328 24.3945 78.8203 25.7235 78.8203 28.028C78.8203 29.8402 77.5288 31.3902 75.1785 31.739V31.8302C77.7749 32.0125 79.7617 33.4554 79.7617 35.7281C79.7617 38.1877 77.5808 39.7673 74.6728 39.7673H62.2664V56.232H73.9999C78.4184 56.232 81.9992 52.6145 81.9992 48.1558V7.77026H70.2656Z" fill="url(#paint1_linear)"/>
<path d="M72.4398 28.6115C72.4398 27.5447 71.6992 26.8289 70.83 26.6808C70.7487 26.6671 70.5275 26.6443 70.3739 26.6443H66.1768V30.5764H70.3739C70.5275 30.5764 70.7487 30.5536 70.83 30.5399C71.6992 30.394 72.4398 29.6783 72.4398 28.6115Z" fill="url(#paint2_linear)"/>
<path d="M26 7.77026C21.5815 7.77026 18.0007 11.3855 18.0007 15.8465V35.7919C20.2449 36.8883 22.5614 37.6041 24.9208 37.6041C27.6865 37.6041 29.206 35.8991 29.206 33.6059V24.235H36.0854V33.6059C36.0854 37.2713 33.857 40.2118 26.21 40.2118C21.6086 40.2118 17.9985 39.2089 17.9985 39.2089V56.2297H29.7321C34.1505 56.2297 37.7313 52.6122 37.7313 48.1535V7.77026H26Z" fill="url(#paint3_linear)"/>
<path d="M48.1328 7.77026C43.7144 7.77026 40.1335 11.3855 40.1335 15.8465V26.421C42.161 24.6658 45.6651 23.5693 51.3614 23.8269C54.4094 23.9637 57.6425 24.7889 57.6425 24.7889V28.2081C56.0237 27.3806 54.0843 26.6124 51.5849 26.4233C47.2636 26.0927 44.6626 28.2263 44.6626 32.0011C44.6626 35.776 47.2636 37.9073 51.5849 37.5768C54.0843 37.3876 56.0508 36.5989 57.6425 35.7942V39.2111C57.6425 39.2111 54.4094 40.0363 51.3614 40.1754C45.6673 40.4329 42.161 39.3365 40.1335 37.5813V56.232H51.8671C56.2856 56.232 59.8664 52.6145 59.8664 48.1558V7.77026H48.1328Z" fill="url(#paint4_linear)"/>
</g>
<defs>
<linearGradient id="paint0_linear" x1="62.2662" y1="35.1127" x2="82.0506" y2="35.1127" gradientUnits="userSpaceOnUse">
<stop stop-color="#1D7946"/>
<stop offset="0.2285" stop-color="#388646"/>
<stop offset="0.7433" stop-color="#6BA642"/>
<stop offset="1" stop-color="#7DB340"/>
</linearGradient>
<linearGradient id="paint1_linear" x1="62.266" y1="32.0001" x2="82.0509" y2="32.0001" gradientUnits="userSpaceOnUse">
<stop stop-color="#1D7946"/>
<stop offset="0.2285" stop-color="#388646"/>
<stop offset="0.7433" stop-color="#6BA642"/>
<stop offset="1" stop-color="#7DB340"/>
</linearGradient>
<linearGradient id="paint2_linear" x1="62.2661" y1="28.612" x2="82.0493" y2="28.612" gradientUnits="userSpaceOnUse">
<stop stop-color="#1D7946"/>
<stop offset="0.2285" stop-color="#388646"/>
<stop offset="0.7433" stop-color="#6BA642"/>
<stop offset="1" stop-color="#7DB340"/>
</linearGradient>
<linearGradient id="paint3_linear" x1="17.9746" y1="32.0001" x2="38.0649" y2="32.0001" gradientUnits="userSpaceOnUse">
<stop stop-color="#272C6D"/>
<stop offset="0.4751" stop-color="#1B4F90"/>
<stop offset="0.8261" stop-color="#0066AD"/>
<stop offset="1" stop-color="#006EB8"/>
</linearGradient>
<linearGradient id="paint4_linear" x1="40.0149" y1="32.0001" x2="59.5268" y2="32.0001" gradientUnits="userSpaceOnUse">
<stop stop-color="#5F3032"/>
<stop offset="0.1735" stop-color="#762C33"/>
<stop offset="0.5731" stop-color="#A31E35"/>
<stop offset="0.8585" stop-color="#BC0C38"/>
<stop offset="1" stop-color="#C4003A"/>
</linearGradient>
<clipPath id="clip0">
<rect width="72" height="56" fill="white" transform="translate(14 4)"/>
</clipPath>
</defs>
</svg>
