<svg width="100" height="64" viewBox="0 0 100 64" fill="none" xmlns="http://www.w3.org/2000/svg">
<rect x="0.5" y="0.5" width="99" height="63" rx="3.5" fill="white" stroke="#C8C8C8"/>
<path d="M57.6405 16.5638H41.3129V46.4413H57.6405V16.5638Z" fill="#FF5F00"/>
<path d="M42.3495 31.5C42.3495 25.4411 45.1382 20.0419 49.4767 16.5639C46.3044 14.02 42.2977 12.5 37.9436 12.5C27.6391 12.5 19.2834 21.0078 19.2834 31.5C19.2834 41.9922 27.6391 50.5 37.9436 50.5C42.2977 50.5 46.2993 48.98 49.4767 46.4361C45.1382 42.9581 42.3495 37.5589 42.3495 31.5Z" fill="#EB001B"/>
<path d="M79.6699 31.5C79.6699 41.9922 71.3143 50.5 61.0097 50.5C56.6557 50.5 52.6541 48.98 49.4767 46.4361C53.8152 42.9581 56.6038 37.5589 56.6038 31.5C56.6038 25.4411 53.8152 20.0419 49.4767 16.5639C52.6489 14.02 56.6557 12.5 61.0097 12.5C71.3143 12.5 79.6699 21.0078 79.6699 31.5Z" fill="#F79E1B"/>
<path d="M77.8868 43.2748V42.6626H78.1304V42.5359H77.5135V42.6626H77.7572V43.2748H77.8868ZM79.0841 43.2748V42.5359H78.8975L78.6798 43.0426L78.4621 42.5359H78.2703V43.2748H78.4051V42.7206L78.6073 43.2009H78.7472L78.9494 42.7206V43.2801H79.0841V43.2748Z" fill="#F79E1B"/>
</svg>
