<svg width="100" height="64" viewBox="0 0 100 64" fill="none" xmlns="http://www.w3.org/2000/svg">
<rect x="0.5" y="0.5" width="99" height="63" rx="3.5" fill="white" stroke="#C8C8C8"/>
<path d="M44.0776 44.5457H37.2833L41.5284 18.4657H48.3227L44.0776 44.5457Z" fill="#0066B2"/>
<path d="M31.5751 18.4657L25.1022 36.3992L24.3374 32.5309L22.0542 20.8043C22.0542 20.8043 21.7771 18.4546 18.8288 18.4546H8.12192L8 18.8979C8 18.8979 11.2697 19.574 15.1047 21.8795L21.0012 44.5457H28.0727L38.8793 18.4657H31.5751Z" fill="#0066B2"/>
<path d="M84.9877 44.5457H91.2278L85.7857 18.4657H80.3214C77.8054 18.4657 77.1847 20.4054 77.1847 20.4054L67.0542 44.5457H74.1367L75.5554 40.6664H84.1896L84.9877 44.5457ZM77.5172 35.3241L81.0862 25.5593L83.0923 35.3241H77.5172Z" fill="#0066B2"/>
<path d="M67.5973 24.7389L68.5616 19.1416C68.5616 19.1416 65.569 18 62.4545 18C59.085 18 51.0825 19.4741 51.0825 26.6342C51.0825 33.3732 60.4816 33.4618 60.4816 36.9975C60.4816 40.5333 52.0579 39.9015 49.2759 37.6736L48.2673 43.5259C48.2673 43.5259 51.3042 45 55.9372 45C60.5702 45 67.5641 42.5948 67.5641 36.0665C67.5641 29.2832 58.0875 28.6515 58.0875 25.7032C58.0764 22.7549 64.6934 23.1318 67.5973 24.7389Z" fill="#0066B2"/>
<path d="M24.3374 32.5421L22.0542 20.8155C22.0542 20.8155 21.7771 18.4657 18.8288 18.4657H8.12192L8 18.909C8 18.909 13.1429 19.9731 18.0751 23.9743C22.7968 27.7871 24.3374 32.5421 24.3374 32.5421Z" fill="#F9A533"/>
</svg>
